<svg width="24" height="24" viewBox="0 0 24 24" fill="none" xmlns="http://www.w3.org/2000/svg">
<path d="M4.75 2.75H19.25C20.358 2.75 21.25 3.642 21.25 4.75V19.25C21.25 20.358 20.358 21.25 19.25 21.25H4.75C3.642 21.25 2.75 20.358 2.75 19.25V4.75C2.75 3.642 3.642 2.75 4.75 2.75Z" fill="#85D839" stroke="black" stroke-width="0.5" stroke-linecap="round" stroke-linejoin="round"/>
<path d="M10.8383 21L13.9076 16.7131C16.1734 16.1081 18.0918 13.7639 16.283 12.5564C16.6954 11.7455 16.7897 11.094 16.1963 10.2505C15.7397 9.60055 14.9211 9.56319 14.284 9.63313C14.1825 8.76328 13.6621 8.26513 12.8957 8.05342C12.1561 7.84937 11.3577 8.26513 10.7115 8.70389C9.12488 7.56246 7.50629 9.86448 7.32926 11.7244L3 17.5633" fill="white"/>
<path d="M10.8383 21L13.9076 16.7131C16.1734 16.1081 18.0918 13.7639 16.283 12.5564C16.6954 11.7455 16.7897 11.094 16.1963 10.2505C15.7397 9.60055 14.9211 9.56319 14.284 9.63313C14.1825 8.76328 13.6621 8.26513 12.8957 8.05342C12.1561 7.84937 11.3577 8.26513 10.7115 8.70389C9.12488 7.56246 7.50629 9.86448 7.32926 11.7244L3 17.5633" stroke="black" stroke-width="0.5" stroke-linecap="round" stroke-linejoin="round"/>
<path d="M11.2945 11.8338C10.7918 11.5241 9.80188 11.4392 9.4889 12.346C9.18748 13.2183 10.0383 13.848 10.6214 14.2272C11.6402 14.8896 12.6182 15.3966 13.2408 14.5719C13.574 14.1302 13.4637 13.5397 12.9417 12.9925C13.3221 11.5973 12.0418 11.2838 11.2945 11.8338ZM10.2314 10.802C9.9781 11.1649 9.53561 11.2097 9.24237 10.9023C8.94914 10.5949 8.91784 10.0519 9.17111 9.68948C9.42438 9.32703 9.86688 9.28179 10.1601 9.58919C10.4529 9.89612 10.4846 10.4395 10.2314 10.802ZM12.7087 10.6868C12.3066 10.9694 11.8304 10.8561 11.646 10.433C11.4616 10.0104 11.6378 9.43805 12.0404 9.15538C12.4424 8.8727 12.9181 8.98652 13.103 9.40913C13.2879 9.83175 13.1112 10.4041 12.7087 10.6872M14.601 10.6523C15.0844 10.5417 15.4783 10.8239 15.4807 11.2829C15.4831 11.7419 15.0931 12.2042 14.6092 12.3152C14.1258 12.4262 13.7319 12.1435 13.7295 11.6845C13.7271 11.2255 14.1171 10.7633 14.601 10.6523ZM14.7036 14.6923C14.276 14.5491 14.1171 14.1465 14.3472 13.7925C14.5784 13.4389 15.1114 13.2686 15.5385 13.4118C15.9656 13.5546 16.1249 13.9576 15.8943 14.3112C15.6632 14.6648 15.1306 14.8355 14.7036 14.6923Z" fill="#ED5481"/>
<path d="M12.7087 10.6868C12.3066 10.9694 11.8304 10.8561 11.646 10.433C11.4616 10.0104 11.6378 9.43805 12.0404 9.15538C12.4424 8.8727 12.9181 8.98652 13.103 9.40913C13.2879 9.83175 13.1112 10.4041 12.7087 10.6872M11.2945 11.8338C10.7918 11.5241 9.80188 11.4392 9.4889 12.346C9.18748 13.2183 10.0383 13.848 10.6214 14.2272C11.6402 14.8896 12.6182 15.3966 13.2408 14.5719C13.574 14.1302 13.4637 13.5397 12.9417 12.9925C13.3221 11.5973 12.0418 11.2838 11.2945 11.8338ZM10.2314 10.802C9.9781 11.1649 9.53561 11.2097 9.24237 10.9023C8.94914 10.5949 8.91784 10.0519 9.17111 9.68948C9.42438 9.32703 9.86688 9.28179 10.1601 9.58919C10.4529 9.89612 10.4846 10.4395 10.2314 10.802ZM14.601 10.6523C15.0844 10.5417 15.4783 10.8239 15.4807 11.2829C15.4831 11.7419 15.0931 12.2042 14.6092 12.3152C14.1258 12.4262 13.7319 12.1435 13.7295 11.6845C13.7271 11.2255 14.1171 10.7633 14.601 10.6523ZM14.7036 14.6923C14.276 14.5491 14.1171 14.1465 14.3472 13.7925C14.5784 13.4389 15.1114 13.2686 15.5385 13.4118C15.9656 13.5546 16.1249 13.9576 15.8943 14.3112C15.6632 14.6648 15.1306 14.8355 14.7036 14.6923Z" stroke="black" stroke-width="0.5" stroke-linecap="round" stroke-linejoin="round"/>
<path d="M4.73516 17.7129C4.69841 17.7226 4.53573 17.7928 4.33911 17.8611C4.21852 17.9031 4.08971 17.8624 3.9937 17.8209C3.88735 17.7748 3.77024 17.8126 3.68877 17.8566C3.6237 17.8917 3.57276 17.9414 3.51203 17.9824C3.49695 17.9926 3.48152 18.0008 3.47377 18.0237C3.43645 18.1341 3.47498 18.4771 3.48321 18.6825C3.48645 18.7632 3.49844 18.8647 3.48976 18.9603C3.47735 19.0967 3.47668 19.2036 3.48751 19.2974C3.49692 19.3789 3.51275 19.4645 3.52779 19.5447C3.54314 19.6265 3.5622 19.702 3.60686 19.7688C3.64831 19.8309 3.66571 19.9398 3.70443 20.0185C3.74049 20.0918 3.79626 20.1603 3.84572 20.2154C3.89348 20.2687 3.96306 20.3063 4.03234 20.3564C4.13583 20.4313 4.30928 20.4818 4.40333 20.4937C4.54969 20.5121 4.64112 20.5371 4.71628 20.547C4.7631 20.5532 4.96146 20.5555 5.2469 20.5588C5.36021 20.5601 5.40932 20.5685 5.6168 20.5742C5.82428 20.5799 6.1886 20.5846 6.39226 20.5893C6.62803 20.5948 6.75284 20.6051 6.93819 20.6005C7.31788 20.591 7.55244 20.5666 7.69395 20.598C7.76003 20.6126 7.93309 20.6168 8.16309 20.6215C8.28048 20.6238 8.46783 20.6392 8.73567 20.6427C8.9035 20.6449 9.01129 20.6655 9.26356 20.6749C9.82332 20.6958 10.1716 20.6722 10.1021 20.6458C9.8691 20.5572 9.77298 20.4591 9.63663 20.3618C9.52759 20.284 9.41777 20.2386 9.44229 20.2335C9.81165 20.1571 9.86187 20.4112 9.93467 20.4501C10.0299 20.501 10.1242 20.5414 10.1931 20.5766C10.2118 20.5861 10.2322 20.5993 10.2318 20.5987C10.2166 20.5765 10.1638 20.5503 10.1144 20.5123C10.0608 20.471 9.88147 20.4102 9.40028 20.2691C9.06353 20.1704 8.52702 20.0594 7.97955 19.9912C7.43207 19.9229 6.88687 19.9118 6.45848 19.8818C6.03009 19.8518 5.73503 19.8031 5.49573 19.7771C5.08332 19.7323 4.85516 19.7375 4.76681 19.716C4.62538 19.6817 4.52588 19.5458 4.41964 19.3869C4.28973 19.1926 4.25964 18.8248 4.21501 18.6665C4.20231 18.6215 4.20607 18.5791 4.21892 18.5499C4.25306 18.4723 4.48643 18.5719 4.94369 18.7166C5.0318 18.7445 5.0523 18.7576 5.32094 18.8291C5.58959 18.9006 6.10464 19.0333 6.38458 19.1079C6.81352 19.2511 7.01159 19.3479 7.04235 19.3665C7.0571 19.3768 7.07011 19.3889 7.08357 19.4034" stroke="white" stroke-linecap="round"/>
</svg>
